# xmcd CD database file
#
# Track frame offsets:
#	182
#	50947
#	81647
#	108587
#	139177
#	170262
#	200562
#	231710
#	264070
#	292247
#
# Disc length: 4261 seconds
#
# Revision: 0
# Processed by: cddbd v1.5.2PL0 Copyright (c) Steve Scherf et al.
# Submitted via: CDex 1.70beta2
#
DISCID=a210a30a
DTITLE=Art Blakey 1960 Messengers - The complete Blue Note recording sessions v1 cd3
DYEAR=1960
DGENRE=Jazz
TTITLE0=A night in Tunisia
TTITLE1=United
TTITLE2=Ping Pong (D)
TTITLE3=Blue Ching
TTITLE4=Pisces
TTITLE5=Look at Birdie
TTITLE6=Master mind
TTITLE7=Ping Pong (E)
TTITLE8=Petty larceny
TTITLE9=Roots and herbs
EXTD=YEAR: 1960
EXTT0=
EXTT1=
EXTT2=
EXTT3=
EXTT4=
EXTT5=
EXTT6=
EXTT7=
EXTT8=
EXTT9=
PLAYORDER=
